<?xml version="1.0" encoding="UTF-8"?><svg id="_图层_1" xmlns="http://www.w3.org/2000/svg" xmlns:xlink="http://www.w3.org/1999/xlink" viewBox="0 0 264.6 48.86"><defs><style>.cls-1{fill:none;}.cls-2{clip-path:url(#clippath);}.cls-3{fill:#e60027;}.cls-4{fill:#9fa0a0;}.cls-5{fill:#231815;}.cls-6{fill:url(#_未命名的渐变_15);}.cls-7{clip-path:url(#clippath-1);}.cls-8{clip-path:url(#clippath-4);}.cls-9{clip-path:url(#clippath-3);}.cls-10{clip-path:url(#clippath-2);}.cls-11{clip-path:url(#clippath-7);}.cls-12{clip-path:url(#clippath-6);}.cls-13{clip-path:url(#clippath-5);}.cls-14{fill:url(#_未命名的渐变_15-4);}.cls-15{fill:url(#_未命名的渐变_15-2);}.cls-16{fill:url(#_未命名的渐变_15-7);}.cls-17{fill:url(#_未命名的渐变_15-5);}.cls-18{fill:url(#_未命名的渐变_15-3);}.cls-19{fill:url(#_未命名的渐变_15-8);}.cls-20{fill:url(#_未命名的渐变_15-6);}</style><clipPath id="clippath"><path id="SVGID" class="cls-1" d="m155.19,28.5c-.85,0-1.53.69-1.53,1.53s.69,1.54,1.53,1.54h29.57c.85,0,1.53-.69,1.53-1.54s-.69-1.53-1.53-1.53h-29.57Z"/></clipPath><linearGradient id="_未命名的渐变_15" x1="-2157.97" y1="-228.23" x2="-2157.33" y2="-228.23" gradientTransform="translate(111937.35 -11792.49) scale(51.8 -51.8)" gradientUnits="userSpaceOnUse"><stop offset="0" stop-color="#59c3e1"/><stop offset=".2" stop-color="#54b7db"/><stop offset=".55" stop-color="#4999cb"/><stop offset="1" stop-color="#376ab3"/></linearGradient><clipPath id="clippath-1"><path id="SVGID-2" class="cls-1" d="m160.65,9.13c-.85,0-1.53.69-1.53,1.53s.69,1.54,1.53,1.54h18.66c.85,0,1.53-.69,1.53-1.54s-.69-1.53-1.53-1.53h-18.66Z"/></clipPath><linearGradient id="_未命名的渐变_15-2" x1="-2252.94" y1="-209.06" x2="-2252.3" y2="-209.06" gradientTransform="translate(-75529.54 7036.29) rotate(-180) scale(33.61 -33.61)" xlink:href="#_未命名的渐变_15"/><clipPath id="clippath-2"><path id="SVGID-3" class="cls-1" d="m160.65,34.95c-.85,0-1.53.69-1.53,1.53s.69,1.54,1.53,1.54h18.66c.85,0,1.53-.69,1.53-1.54s-.69-1.53-1.53-1.53h-18.66Z"/></clipPath><linearGradient id="_未命名的渐变_15-3" x1="-2252.94" y1="-209.51" x2="-2252.3" y2="-209.51" gradientTransform="translate(-75529.54 7076.97) rotate(-180) scale(33.61 -33.61)" xlink:href="#_未命名的渐变_15"/><clipPath id="clippath-3"><path id="SVGID-4" class="cls-1" d="m179.54,22.04c-.85,0-1.53.69-1.53,1.53s.69,1.54,1.53,1.54h10.75c.85,0,1.53-.69,1.53-1.54s-.69-1.53-1.53-1.53h-10.75Z"/></clipPath><linearGradient id="_未命名的渐变_15-4" x1="-2285.51" y1="-202.67" x2="-2284.88" y2="-202.67" gradientTransform="translate(-48645.3 4354.17) rotate(-180) scale(21.37 -21.37)" xlink:href="#_未命名的渐变_15"/><clipPath id="clippath-4"><path id="SVGID-5" class="cls-1" d="m149.77,22.04c-.85,0-1.53.69-1.53,1.53s.69,1.54,1.53,1.54h10.14c.85,0,1.53-.69,1.53-1.54s-.69-1.53-1.53-1.53h-10.14Z"/></clipPath><linearGradient id="_未命名的渐变_15-5" x1="-2290.48" y1="-201.83" x2="-2289.85" y2="-201.83" gradientTransform="translate(-46641.63 4147.81) rotate(-180) scale(20.43 -20.43)" xlink:href="#_未命名的渐变_15"/><clipPath id="clippath-5"><path id="SVGID-6" class="cls-1" d="m153.74,16.62c-.28.8.15,1.67.95,1.95l18.81,6.46c.8.27,1.67-.15,1.95-.95.27-.8-.15-1.67-.95-1.95l-18.81-6.46c-.17-.06-.33-.08-.5-.08-.64,0-1.23.4-1.45,1.04"/></clipPath><linearGradient id="_未命名的渐变_15-6" x1="-2138.22" y1="-211.77" x2="-2137.58" y2="-211.77" gradientTransform="translate(7407.07 73134.92) rotate(90) scale(34.2 -34.2)" xlink:href="#_未命名的渐变_15"/><clipPath id="clippath-6"><path id="SVGID-7" class="cls-1" d="m155.19,15.59c-.85,0-1.53.69-1.53,1.53s.69,1.53,1.53,1.53h29.57c.85,0,1.53-.69,1.53-1.53s-.69-1.53-1.53-1.53h-29.57Z"/></clipPath><linearGradient id="_未命名的渐变_15-7" x1="-2233.68" y1="-213.06" x2="-2233.04" y2="-213.06" gradientTransform="translate(-112578.29 10773.41) rotate(-180) scale(50.48 -50.48)" xlink:href="#_未命名的渐变_15"/><clipPath id="clippath-7"><path id="SVGID-8" class="cls-1" d="m173.5,22.11l-18.81,6.46c-.8.28-1.23,1.15-.95,1.95.28.8,1.15,1.23,1.95.95l18.81-6.46c.8-.28,1.23-1.15.95-1.95-.22-.64-.81-1.04-1.45-1.04-.17,0-.33.03-.5.08"/></clipPath><linearGradient id="_未命名的渐变_15-8" x1="-2243.45" y1="-250.45" x2="-2242.82" y2="-250.45" gradientTransform="translate(-79485.92 -8388.93) rotate(180) scale(35.51 33.6)" xlink:href="#_未命名的渐变_15"/></defs><path class="cls-3" d="m33.3,35.73c-.76.75-1.99.75-2.75,0-.74-.73-1.39-1.38-1.39-1.38l2.08-2.09-2.61-2.62-2.1,2.08-2.09-2.09-2.61,2.62,2.09,2.09s-.65.64-1.39,1.38c-.75.75-1.99.75-2.76,0-.75-.76-.75-2.01,0-2.76.78-.8,6.75-6.8,6.75-6.8,0,0,5.99,6,6.78,6.8.76.75.76,2.01,0,2.77m-13.54-21.55c-.75-.77-.75-1.99,0-2.76.77-.75,2.01-.75,2.76,0l1.39,1.39-2.09,2.07,2.61,2.63,2.09-2.09,2.09,2.09,2.61-2.63-2.08-2.07s.65-.65,1.39-1.39c.76-.75,1.99-.75,2.75,0,.77.77.77,1.98,0,2.76-.8.8-6.78,6.8-6.78,6.8,0,0-5.95-6-6.74-6.8m9.39,9.4s6.15-6.16,6.76-6.77c2.22-2.21,2.22-5.79,0-8.02-2.2-2.2-5.78-2.2-8.01,0-.86.89-1.37,1.39-1.37,1.39,0,0-.5-.5-1.37-1.39-2.22-2.2-5.8-2.2-8.02,0-2.21,2.23-2.21,5.81,0,8.02l6.78,6.77s-6.16,6.14-6.78,6.76c-2.21,2.21-2.21,5.8,0,8.02,2.22,2.2,5.8,2.2,8.02,0,.87-.89,1.37-1.4,1.37-1.4,0,0,.51.52,1.37,1.4,2.23,2.2,5.81,2.2,8.01,0,2.22-2.22,2.22-5.81,0-8.02-.6-.62-6.76-6.76-6.76-6.76m14.86,1.36c-.76.77-1.99.77-2.76,0-.62-.62-1.38-1.36-1.38-1.36,0,0,.76-.77,1.38-1.39.77-.77,2-.77,2.76,0,.38.38.57.88.57,1.39s-.18.99-.57,1.36m2.63-5.38c-2.2-2.2-5.8-2.2-8.01,0-.62.64-1.38,1.38-1.38,1.38l-2.09-2.07-2.62,2.6,2.08,2.1-2.08,2.07,2.62,2.62,2.08-2.08s.76.75,1.38,1.38c2.21,2.21,5.81,2.21,8.01,0,1.1-1.11,1.66-2.57,1.66-4s-.55-2.9-1.65-4m-34.87,5.38c-.78.77-2.01.77-2.78,0-.37-.37-.56-.88-.56-1.36,0-.52.2-1.01.56-1.39.77-.77,2-.77,2.78,0,.6.61,1.37,1.39,1.37,1.39,0,0-.76.74-1.37,1.36m6.06,3.34l2.65-2.62-2.09-2.07,2.09-2.1-2.65-2.6-2.08,2.07-1.38-1.38c-2.19-2.2-5.8-2.2-8,0-1.11,1.11-1.66,2.57-1.66,4.02s.54,2.89,1.66,4c2.2,2.21,5.81,2.21,8,0,.46-.46.92-.92,1.38-1.38l2.08,2.07Z"/><path class="cls-5" d="m72.51,30.13c-1.29-.03-1.7.7-1.7.7l-.06-.63h-1.16v5.36h1.34v-3.26c0-.68.41-1.26,1.17-1.26s1.03.71,1.03,1.26v3.26h1.24v-3.15c0-1.65-.89-2.28-1.85-2.28m-11.54,4.11c-.3.41-.67.76-1.14,1.03-.54.31-1.15.45-1.81.45-.97,0-1.8-.35-2.49-1.02-.69-.69-1.03-1.51-1.03-2.51s.39-1.92,1.17-2.62c.68-.61,1.47-.93,2.36-.93.63,0,1.25.18,1.81.48.45.28.84.61,1.14,1.03l-1.16.83c-.07-.2-.19-.37-.33-.54-.38-.43-.87-.67-1.47-.67s-1.08.23-1.46.68c-.39.45-.59,1.03-.59,1.73s.19,1.31.59,1.77c.38.43.86.65,1.46.65s1.07-.22,1.47-.67c.13-.17.26-.35.33-.54,0,.01.85.63,1.16.84m.48-6.43h1.36v3.02s.49-.7,1.55-.7c.96,0,1.86.65,1.86,2.27v3.16h-1.25v-3.26c0-.56-.22-1.25-1-1.25s-1.15.56-1.15,1.25v3.26h-1.36v-7.75Zm17.58,6.3c-.3.32-.67.48-1.17.48-.45,0-.82-.18-1.12-.49-.28-.32-.42-.72-.42-1.23,0-.47.14-.88.43-1.19.29-.32.67-.49,1.12-.49.48,0,.86.16,1.15.49.3.31.45.72.45,1.21,0,.5-.15.9-.44,1.23m.36-3.9v.63c-.52-.52-1.1-.76-1.76-.76-.75,0-1.38.27-1.89.79-.5.53-.76,1.2-.76,2s.26,1.49.76,2.03c.51.54,1.14.81,1.92.81.61,0,1.18-.23,1.71-.72v.57h1.31v-5.33h-1.3Z"/><path class="cls-3" d="m95.84,29.65c-.44,0-.72-.32-.72-.7,0-.42.31-.74.74-.74.46,0,.74.32.74.74,0,.37-.28.7-.74.7h-.01Zm-28-.01c-.44,0-.72-.33-.72-.72,0-.41.31-.72.74-.72.46,0,.74.31.74.72,0,.38-.28.72-.74.72h-.01Zm-.61.54h1.25v5.38h-1.25v-5.38Z"/><path class="cls-5" d="m114.94,30.15c-.8-.01-1.36.32-1.82.84-.31-.57-.84-.81-1.4-.84-1.14-.03-1.62.69-1.62.69l-.06-.64h-1.21v5.35h1.36v-3.22c0-.69.37-1.25,1.07-1.25s.93.69.93,1.25v3.22h1.23v-3.15h0c.01-.9.42-1.32,1.05-1.32.72,0,.94.69.94,1.25v3.22h1.23v-3.13c0-1.62-.81-2.25-1.71-2.27"/><rect class="cls-3" x="95.23" y="30.21" width="1.25" height="5.35"/><path class="cls-5" d="m102.54,34.52c-.23.34-.53.61-.9.81-.43.26-.92.38-1.44.38-.77,0-1.43-.29-1.98-.82-.55-.54-.83-1.2-.83-1.98,0-.83.32-1.53.94-2.09.54-.48,1.17-.72,1.87-.72.49,0,.98.12,1.43.38.36.2.67.47.9.8l-.99.72c-.06-.16-.15-.28-.25-.39-.28-.33-.63-.5-1.07-.5-.41,0-.76.17-1.04.5-.29.33-.43.76-.43,1.29s.14.96.43,1.31c.28.32.63.48,1.04.48.43,0,.79-.16,1.06-.5.11-.12.2-.26.26-.41l1.01.72Zm-17.11,1.12c1.28.02,1.7-.69,1.7-.69l.06.62h1.16v-5.35h-1.35v3.25c0,.69-.38,1.26-1.15,1.26s-1.11-.71-1.11-1.26v-3.25h-1.36v3.14c0,1.65,1.07,2.27,2.04,2.29m6.93-5.51c-1.27-.01-1.7.71-1.7.71l-.06-.63h-1.17v5.35h1.34v-3.24c0-.71.4-1.25,1.15-1.25.8,0,1.02.69,1.02,1.25v3.24h1.26v-3.14c0-1.64-.89-2.27-1.85-2.29m13.13.9c-.43,0-.78.17-1.05.52-.3.35-.43.81-.43,1.34,0,.56.14,1.02.41,1.38.3.33.63.5,1.07.5s.8-.17,1.07-.52c.3-.35.45-.81.45-1.36s-.15-.98-.43-1.35c-.29-.34-.65-.51-1.1-.51m-.1-.94c.51,0,.96.12,1.41.38.45.25.8.6,1.03,1.01.25.44.38.92.38,1.4,0,.51-.14.97-.38,1.41-.25.43-.59.79-1.01,1.03-.43.26-.91.37-1.42.37-.77,0-1.42-.26-1.95-.81-.55-.54-.81-1.2-.81-1.99,0-.83.31-1.52.92-2.06.53-.48,1.15-.73,1.83-.73"/><path class="cls-5" d="m91.11,18h-1.61v-1.61h1.61v1.61Zm0,2.92l-1.61.45v-2.04h1.61v1.59Zm2.76-.76l-.87.25v-7.36c0-.83-.51-1.34-1.13-1.34h-4.66v1.34h3.91v2.03h-1.61v-1.37h-1.76v8.16l-.78.24v1.45l4.14-1.17v2.68h.75c.58,0,.96-.37,1.13-1.07v-2.11l.87-.25v-1.48Z"/><path class="cls-5" d="m98.32,19h2.3v-1.32h-2.57v-2h2.57v-1.31h-1.68l1.51-1.9-1.44-1.03-1.86,2.93h-1.35l1.11-.8c-.94-1.31-1.76-2.11-1.76-2.11l-1.04.65,1.35,2.28h-1.68v1.31h2.2v2h-2.2v1.33h1.94l-2.28,5.89h.97c.54,0,1.06-.37,1.27-.83l1.41-3.51,1.93,4.35h1.93l-2.64-5.92Z"/><path class="cls-5" d="m66.08,19.11h0c0,.46-.37.84-.83.85h-2.63v-5.35h3.47v4.51Zm.82-5.83h-4.3v-1.84h-2.25v1.84h-2.82v1.34h2.82v5.35h-3.48v-6.69h-2.25v7.99h5.75v3.8h.35c1.28-.06,1.86-.62,1.9-1.56v-2.24h3.79c1.01,0,1.86-.8,1.92-1.86v-4.78c-.06-.75-.65-1.35-1.42-1.35"/><path class="cls-5" d="m83.05,11.84h-9.31v1.3h8.66v9.55c0,.48-.37.83-.83.83h-8.52v-11.68h-2.06v13.01h11.61c1.03,0,1.89-.83,1.89-1.9v-9.68c0-.78-.63-1.42-1.44-1.42"/><path class="cls-5" d="m81.71,20.93h-1l.66-.83c-.88-.8-1.58-1.21-1.58-1.21l-.78.78,1.13,1.27h-1.54v-2.2h3.04v-1.32h-3.04v-1.63h3.04v-1.31h-7.86v1.31h2.74v1.63h-2.74v1.32h2.74v2.2h-2.8v1.31h7.97v-1.31Z"/><path class="cls-5" d="m106.65,23.58c-.48,0-.86-.39-.86-.86v-6.8h-2.97v1.32h.99v6c0,1.01.89,1.65,1.59,1.65h11.29v-1.31h-10.03Z"/><path class="cls-5" d="m114.6,17.28h-2.08v-.89h2.08v.89Zm0,2.14h-2.08v-.89h2.08v.89Zm-3.88-2.14h-2.06v-.89h2.06v.89Zm0,2.14h-2.06v-.89h2.06v.89Zm4.68-4.32h-2.09l2.76-1.65v-1.51h-9.31v1.3h6.81l-2.23,1.32c-.83-.56-1.8-.99-1.8-.99l-.69.89.69.62h-2.68v7.89h.53c.59,0,1.25-.39,1.25-1.18v-1.09h2.06v2.27h.58c.68,0,1.18-.37,1.21-1.2v-1.07h2.09v.54c0,.24-.31.41-.54.41h-.8l.35,1.34h1.3c.87,0,1.59-.69,1.59-1.59v-5.21c0-.61-.51-1.08-1.08-1.08"/><path class="cls-5" d="m106.04,14.32c-.97-1.37-2.04-2.1-2.04-2.1l-1.04.75,1.76,2.35,1.32-1Z"/><path class="cls-4" d="m132.44,24.34c-.44,0-.73-.33-.73-.71,0-.42.31-.75.74-.75.46,0,.74.32.74.75,0,.37-.28.71-.74.71h-.01Z"/><path class="cls-4" d="m132.58,40.09h-.24v-10.84h.24v10.84Zm0-22.18h-.24V7.11h.24v10.81Z"/><path class="cls-3" d="m206.98,29.04c-.28,0-.52.23-.52.51s.23.52.52.52.52-.23.52-.52-.23-.51-.52-.51"/><rect class="cls-3" x="206.58" y="30.37" width=".84" height="3.54"/><path class="cls-3" d="m234.39,29.04c-.28,0-.51.23-.51.51s.23.52.51.52.51-.23.51-.52-.23-.51-.51-.51"/><rect class="cls-3" x="233.99" y="30.37" width=".84" height="3.54"/><path class="cls-5" d="m213.4,30.27c-1.05,0-1.9.85-1.9,1.9s.85,1.9,1.9,1.9,1.9-.85,1.9-1.9-.85-1.9-1.9-1.9Zm0,3.08c-.61,0-1.11-.53-1.11-1.18s.49-1.18,1.11-1.18,1.1.53,1.1,1.18-.5,1.18-1.1,1.18Z"/><path class="cls-5" d="m232.38,30.35v.33c-.27-.23-.59-.38-.92-.41-1.09-.1-2.04.8-2.04,1.89,0,.93.69,1.9,1.85,1.9.06,0,.13,0,.19,0,.32-.03.64-.17.91-.4-.03.59-.26.97-.67,1.13-.6.23-1.43-.09-1.72-.4l-.08-.09-.49.67.07.06c.56.46,1.18.7,1.76.7.3,0,.59-.06.86-.19.7-.33,1.12-1.05,1.12-1.91v-3.26h-.85Zm.06,2.01c-.01.06-.03.12-.05.19-.16.44-.57.74-1.03.74-.61,0-1.1-.5-1.1-1.12s.5-1.13,1.1-1.13c.46,0,.87.3,1.03.73.02.06.04.13.05.19.01.08.02.14.02.2s0,.13-.02.2Z"/><path class="cls-5" d="m225.26,29.05h-1.77v4.87h1.77c1.34,0,2.44-1.09,2.44-2.43s-1.09-2.44-2.44-2.44Zm0,3.99h-.89v-3.12h.89c.86,0,1.56.7,1.56,1.56s-.7,1.56-1.56,1.56Z"/><path class="cls-5" d="m228.57,29.04c-.28,0-.52.23-.52.51s.23.52.52.52.52-.23.52-.52-.23-.51-.52-.51Z"/><rect class="cls-5" x="228.16" y="30.37" width=".84" height="3.54"/><path class="cls-5" d="m219.58,30.29c-.43,0-.86.2-1.13.53-.25-.34-.62-.53-1.02-.53-.33,0-.66.13-.91.35v-.25h-.84v3.5h.84v-2.08c0-.43.33-.73.71-.73.42,0,.67.28.67.77v2.04h.84v-2.21c.03-.4.36-.61.64-.61.42,0,.67.28.67.77v2.04h.84v-2.21c0-.77-.58-1.4-1.3-1.4Z"/><path class="cls-5" d="m209.86,31.06c.37,0,.72.19.92.51l.06.1.58-.58-.05-.06c-.36-.47-.92-.75-1.51-.75-1.05,0-1.9.85-1.9,1.9s.85,1.9,1.9,1.9c.59,0,1.15-.28,1.51-.75l.05-.06-.58-.59-.06.1c-.2.32-.55.51-.92.51-.6,0-1.1-.49-1.1-1.1s.49-1.1,1.1-1.1Z"/><path class="cls-5" d="m205.88,31.69c-.03-.78-.67-1.4-1.45-1.4-.39,0-.78.15-1.06.39v-.28h-.84v3.5h.84v-1.98c0-.46.37-.83.83-.83.51,0,.84.33.84.83v1.99h.84v-2.21h0Z"/><path class="cls-5" d="m200.98,32.18c0,.57-.46,1.03-1.03,1.03s-1.03-.45-1.03-1.03v-3.13h-.91v3.33c0,.98.94,1.74,1.93,1.74s1.93-.75,1.93-1.74v-3.33h-.9v3.13Z"/><path class="cls-5" d="m241.16,30.69c-.27-.24-.59-.38-.92-.41-1.09-.11-2.04.8-2.04,1.89,0,.93.69,1.9,1.85,1.9.07,0,.13,0,.19,0,.33-.03.65-.17.92-.4v.32h.85v-3.61h-.85v.33Zm.04,1.48c0,.06,0,.12-.02.2-.01.06-.03.12-.05.18-.16.43-.57.71-1.03.71-.61,0-1.11-.49-1.11-1.09s.5-1.09,1.11-1.09c.46,0,.87.29,1.03.71.02.06.04.12.05.18.01.07.02.14.02.2Z"/><path class="cls-5" d="m236.94,29.53h-.81v.94h-.84v.81h.84v1.75c0,.54.34.94.88,1.01.43.06.89-.09.89-.09v-.81c-.15.09-.41.18-.67.11-.19-.05-.28-.18-.28-.41v-1.55h1.04v-.81h-1.04v-.94Z"/><rect class="cls-5" x="242.76" y="28.96" width=".81" height="4.94"/><path class="cls-5" d="m260.11,31.71c-.03-.78-.67-1.4-1.45-1.4-.39,0-.78.15-1.06.39v-1.65h-.84v4.87h.84v-1.99c0-.46.38-.84.84-.84.51,0,.84.33.84.83v1.99h.84v-2.22h0Z"/><path class="cls-5" d="m254.88,31.06c.37,0,.71.19.92.51l.06.1.58-.58-.05-.06c-.36-.47-.92-.75-1.51-.75-1.05,0-1.9.85-1.9,1.9s.85,1.9,1.9,1.9c.59,0,1.15-.28,1.51-.75l.05-.06-.58-.59-.06.1c-.2.32-.55.51-.92.51-.6,0-1.1-.49-1.1-1.1s.49-1.1,1.1-1.1Z"/><path class="cls-5" d="m250.92,30.27c-1.1,0-1.92.85-1.92,1.9,0,1.12.9,1.9,1.92,1.9.66,0,1.27-.33,1.59-.8l-.55-.56c-.22.34-.55.6-1.04.59-.63,0-.98-.3-1.08-.87h2.82c.01-.09.03-.17.03-.27.02-1.01-.65-1.9-1.77-1.9Zm0,.75c.5-.01.86.29.98.78h-2.05c.14-.42.52-.77,1.07-.78Z"/><polygon class="cls-5" points="249.72 29.78 249.72 29.05 245.99 29.05 245.99 29.78 247.44 29.78 247.44 33.87 248.31 33.87 248.31 29.78 249.72 29.78"/><path class="cls-5" d="m204.93,20.29l-.88.26v-7.38c0-.83-.51-1.34-1.13-1.34h-4.68v1.34h3.93v2.03h-1.61v-1.37h-1.77v8.18l-.78.24v1.45l4.16-1.17v2.68h.75c.58,0,.96-.37,1.13-1.07v-2.12l.88-.26v-1.48Zm-2.77.77l-1.61.45v-2.05h1.61v1.6Zm0-2.93h-1.61v-1.61h1.61v1.61Z"/><path class="cls-5" d="m211.7,19.13v-1.33h-2.57v-2.01h2.57v-1.32h-1.68l1.51-1.91-1.44-1.03-1.87,2.94h-1.36l1.11-.8c-.95-1.31-1.76-2.12-1.76-2.12l-1.05.65,1.36,2.29h-1.68v1.31h2.21v2.01h-2.21v1.33h1.95l-2.29,5.91h.97c.54,0,1.06-.37,1.27-.83l1.41-3.52,1.94,4.37h1.94l-2.64-5.94h2.3Z"/><path class="cls-5" d="m216.89,22.86v-6.83h-2.98v1.33h.99v6.02c0,1.02.89,1.65,1.6,1.65h11.32v-1.32h-10.06c-.48,0-.86-.4-.86-.86Z"/><path class="cls-5" d="m222.46,14.68c-.83-.57-1.81-.99-1.81-.99l-.69.89.69.62h-2.68v7.92h.54c.59,0,1.26-.4,1.26-1.19v-1.09h2.06v2.28h.58c.68,0,1.19-.37,1.21-1.2v-1.07h2.09v.54c0,.24-.31.41-.54.41h-.81l.35,1.34h1.3c.88,0,1.6-.69,1.6-1.6v-5.23c0-.61-.51-1.09-1.09-1.09h-2.09l2.77-1.65v-1.51h-9.34v1.3h6.83l-2.23,1.33Zm-.62,4.88h-2.06v-.89h2.06v.89Zm0-2.15h-2.06v-.89h2.06v.89Zm3.89,2.15h-2.09v-.89h2.09v.89Zm0-3.04v.89h-2.09v-.89h2.09Z"/><path class="cls-5" d="m217.15,14.44c-.98-1.37-2.05-2.11-2.05-2.11l-1.05.75,1.76,2.36,1.33-1Z"/><path class="cls-5" d="m259.1,20.23v-8.8h-1.98v8.8h-3.74v1.31h3.74v3.42l.82.08c.64,0,1.16-.52,1.16-1.24v-2.26h1.11v-1.31h-1.11Z"/><polygon class="cls-5" points="256.71 14.12 253.38 13.21 253.38 14.5 256.71 15.42 256.71 14.12"/><polygon class="cls-5" points="256.71 17.57 253.38 16.66 253.38 17.95 256.71 18.87 256.71 17.57"/><rect class="cls-5" x="251.19" y="16.68" width="1.45" height="8.36"/><path class="cls-5" d="m246.34,25.04h1.44c.51-3.06.51-7.9.51-8.36h-1.45c.01.44-.02,5.06-.51,8.36Z"/><path class="cls-5" d="m250.55,13l2.16-.12v-1.37s-6.12.36-6.12.36v1.37s2.16-.14,2.16-.14v1.43h-2.37v1.34h2.37v9.11l.74-.04c.58,0,1.05-.47,1.05-1.1v-7.97h2.37v-1.34h-2.37v-1.54Z"/><path class="cls-5" d="m238,11.87l-1.5-.36c-.28,1-.65,2.08-.74,2.3l1.43.41c.07-.17.51-1.38.81-2.35Z"/><path class="cls-5" d="m233.21,13.67c-.11-.2-.7-1.33-1.31-2.15l-1.19.57c.39.69,1,2.02,1.08,2.22l1.42-.64Z"/><path class="cls-5" d="m231.9,18.59s.85-1.15,1.62-2.69v2.7h.75c.58,0,1.05-.47,1.05-1.05v-1.83c.47.88,1.37,2.77,1.45,2.95l1.41-.67c-.09-.16-.84-1.43-1.44-2.39h1.17v-1.23h-2.59v-2.87h-1.8v2.87h-2.81v1.23h1.5c-.26.4-.78,1.17-1.53,2.04l1.23.93Z"/><path class="cls-5" d="m237.26,20.77h1.21v-1.23h-1.16c0-.21,0-.43,0-.66h-1.66c0,.24,0,.46,0,.66h-2.3c0-.21,0-.42,0-.66h-1.66c0,.24,0,.45,0,.66h-1.14v1.23h1.19c.09,1.04.34,1.68.96,2.19-.53.16-1.14.33-1.87.54v1.54c1.57-.49,2.76-.84,3.66-1.17.9.33,2.09.68,3.66,1.17v-1.54c-.73-.21-1.34-.38-1.87-.54.62-.5.86-1.15.96-2.19Zm-2.75,1.55c-.72-.36-.99-.79-1.09-1.55h2.18c-.1.76-.37,1.18-1.09,1.55Z"/><path class="cls-5" d="m243.77,14.49h.55v-1.23h-4.03c.26-.84.55-1.69.55-1.69h-1.8c-.35,1.04-.88,2.78-.89,2.79l-.04.13h3.96c-.08.5-.35,1.95-.98,3.97-.81-2.02-1.08-3.21-1.08-3.21h-1.73c.42,1.79,1.22,3.79,2.01,5.51-.5,1.31-1.12,2.76-1.91,4.28h1.12c.46,0,.87-.27,1.06-.69.18-.4.41-.96.68-1.62.7,1.38,1.23,2.31,1.23,2.31h1.91c-.97-1.62-1.74-3.09-2.34-4.38.69-1.9,1.39-4.15,1.73-6.17Z"/><g class="cls-2"><rect class="cls-6" x="153.65" y="28.5" width="32.64" height="3.07"/></g><g class="cls-7"><rect class="cls-15" x="159.11" y="9.13" width="21.73" height="3.07"/></g><g class="cls-10"><rect class="cls-18" x="159.11" y="34.95" width="21.73" height="3.07"/></g><g class="cls-9"><rect class="cls-14" x="178" y="22.04" width="13.81" height="3.07"/></g><g class="cls-8"><rect class="cls-17" x="148.23" y="22.04" width="13.21" height="3.07"/></g><g class="cls-13"><rect class="cls-20" x="156.16" y="8.32" width="16.87" height="24.25" transform="translate(88.09 167.61) rotate(-69.61)"/></g><g class="cls-12"><rect class="cls-16" x="153.65" y="15.59" width="32.64" height="3.07"/></g><g class="cls-11"><rect class="cls-19" x="152.49" y="18.68" width="24.21" height="16.43" transform="translate(.19 54.95) rotate(-18.96)"/></g></svg>